<svg width="50" height="40" viewBox="0 0 101 91" fill="none" xmlns="http://www.w3.org/2000/svg">
<path d="M73.8095 0H73.5673C63.9289 0 55.4048 4.77864 50.5016 11.8301C45.5984 4.77864 37.0744 0 27.4359 0H27.1937C19.9603 0.0645855 13.0464 2.80121 7.95442 7.61518C2.86245 12.4291 0.00392667 18.9314 0 25.709C0 34.1254 3.93418 46.0674 11.6055 55.8941C26.2214 74.6182 50.5016 91 50.5016 91C50.5016 91 74.7818 74.6213 89.3945 55.8941C97.069 46.0674 101 34.1254 101 25.709C100.996 18.932 98.138 12.4301 93.0467 7.61624C87.9554 2.80236 81.0423 0.0653778 73.8095 0V0ZM70.3437 57.3346C69.246 57.3307 68.1752 57.0159 67.272 56.4315C66.3687 55.8471 65.6751 55.0205 65.2823 54.0601H59.5199C59.1404 54.0579 58.7712 53.9447 58.4637 53.7364C58.1562 53.528 57.9258 53.2349 57.8047 52.898L56.0347 47.9014L50.4338 66.2382C50.3247 66.5912 50.0964 66.9015 49.783 67.1225C49.4697 67.3435 49.0882 67.4633 48.696 67.4639H48.583C48.1737 67.4454 47.7837 67.2958 47.478 67.0402C47.1723 66.7846 46.9694 66.4385 46.9033 66.0597L41.1313 33.5322L36.9128 52.7799C36.8161 53.1456 36.5915 53.4703 36.2747 53.7024C35.958 53.9344 35.5675 54.0603 35.1654 54.0601H27.0483C26.805 54.0697 26.5621 54.0332 26.3343 53.9526C26.1064 53.872 25.8983 53.749 25.7225 53.5911C25.5467 53.4332 25.4068 53.2436 25.3112 53.0338C25.2156 52.8239 25.1664 52.5981 25.1664 52.3699C25.1664 52.1417 25.2156 51.9159 25.3112 51.706C25.4068 51.4961 25.5467 51.3065 25.7225 51.1486C25.8983 50.9907 26.1064 50.8677 26.3343 50.7872C26.5621 50.7066 26.805 50.67 27.0483 50.6796H33.7442L39.7197 24.8011C39.8178 24.4185 40.0547 24.0797 40.3899 23.8426C40.7251 23.6056 41.1378 23.4849 41.5574 23.5014C41.977 23.5178 42.3775 23.6703 42.6904 23.9328C43.0033 24.1952 43.2091 24.5514 43.2728 24.9403L49.1676 58.1215L54.1871 41.7155C54.2916 41.37 54.5126 41.0654 54.817 40.8472C55.1215 40.6291 55.4931 40.509 55.8764 40.505H55.9119C56.2915 40.5051 56.6614 40.6175 56.9688 40.8262C57.2762 41.0349 57.5055 41.3292 57.6238 41.6671L60.8248 50.6887H65.2112C65.5231 49.801 66.0906 49.0112 66.8513 48.4066C67.612 47.802 68.5361 47.4061 69.5218 47.2625C70.5075 47.119 71.5163 47.2334 72.4369 47.5931C73.3576 47.9528 74.1543 48.5438 74.739 49.301C75.3238 50.0581 75.674 50.952 75.7508 51.8838C75.8276 52.8156 75.6282 53.7492 75.1745 54.5815C74.7208 55.4139 74.0305 56.1126 73.1798 56.6005C72.329 57.0885 71.3509 57.3467 70.3534 57.3467L70.3437 57.3346Z" fill="#FAFAFA"/>
</svg>
